HIERARCHY
ROOT Hips
{
  OFFSET 53.6943 57.9527 -15.4439
  CHANNELS 6 Xposition Yposition Zposition Zrotation Xrotation Yrotation
  JOINT spine
  {
    OFFSET 0 7.4756 0.429885
    CHANNELS 3 Zrotation Xrotation Yrotation
    JOINT spine1
    {
      OFFSET 0 9.92301 0
      CHANNELS 3 Zrotation Xrotation Yrotation
      JOINT spine2
      {
        OFFSET 0 9.50804 0
        CHANNELS 3 Zrotation Xrotation Yrotation
        JOINT Neck
        {
          OFFSET 0 24.4111 1.16384
          CHANNELS 3 Zrotation Xrotation Yrotation
          JOINT Head
          {
            OFFSET 0 7.37523 0
            CHANNELS 3 Zrotation Xrotation Yrotation
            End Site
            {
              OFFSET 0 17.8522 -5.88741
            }
          }
        }
        JOINT RightShoulder
        {
          OFFSET -4.00356 10.2679 -0.557468
          CHANNELS 3 Zrotation Xrotation Yrotation
          JOINT RightArm
          {
            OFFSET 0 13.4673 0
            CHANNELS 3 Zrotation Xrotation Yrotation
            JOINT RightArmRoll
            {
              OFFSET 0 6.79858 0
              CHANNELS 3 Zrotation Xrotation Yrotation
              JOINT RightForeArm
              {
                OFFSET 0 19.8018 0
                CHANNELS 3 Zrotation Xrotation Yrotation
                JOINT RightForeArmRoll
                {
                  OFFSET 0 7.62905 0
                  CHANNELS 3 Zrotation Xrotation Yrotation
                  JOINT RightHand
                  {
                    OFFSET 0 15.3098 0
                    CHANNELS 3 Zrotation Xrotation Yrotation
                    End Site
                    {
                      OFFSET 0 0 0
                    }
                  }
                }
              }
            }
          }
        }
        JOINT LeftShoulder
        {
          OFFSET 4.00356 10.2679 -0.557468
          CHANNELS 3 Zrotation Xrotation Yrotation
          JOINT LeftArm
          {
            OFFSET 0 13.4673 0
            CHANNELS 3 Zrotation Xrotation Yrotation
            JOINT LeftArmRoll
            {
              OFFSET 0 6.79858 0
              CHANNELS 3 Zrotation Xrotation Yrotation
              JOINT LeftForeArm
              {
                OFFSET 0 19.8018 0
                CHANNELS 3 Zrotation Xrotation Yrotation
                JOINT LeftForeArmRoll
                {
                  OFFSET 0 7.62905 0
                  CHANNELS 3 Zrotation Xrotation Yrotation
                  JOINT LeftHand
                  {
                    OFFSET 0 15.3098 0
                    CHANNELS 3 Zrotation Xrotation Yrotation
                    End Site
                    {
                      OFFSET 0 0 0
                    }
                  }
                }
              }
            }
          }
        }
      }
    }
  }
  JOINT RightUpLeg
  {
    OFFSET -6.62609 -1.21505 -1.01927
    CHANNELS 3 Zrotation Xrotation Yrotation
    JOINT RightUpLegRoll
    {
      OFFSET 0 17.9517 0
      CHANNELS 3 Zrotation Xrotation Yrotation
      JOINT RightLeg
      {
        OFFSET 0 -22.2304 0
        CHANNELS 3 Zrotation Xrotation Yrotation
        JOINT RightLegRoll
        {
          OFFSET 0 22.3032 0
          CHANNELS 3 Zrotation Xrotation Yrotation
          JOINT RightFoot
          {
            OFFSET 0 18.5636 0
            CHANNELS 3 Zrotation Xrotation Yrotation
            JOINT RightToeBase
            {
              OFFSET 0 15.5183 0
              CHANNELS 3 Zrotation Xrotation Yrotation
              End Site
              {
                OFFSET 0.00657761 7.51539 -0.866263
              }
            }
          }
        }
      }
    }
  }
  JOINT LeftUpLeg
  {
    OFFSET 6.62609 -1.21505 -1.01927
    CHANNELS 3 Zrotation Xrotation Yrotation
    JOINT LeftUpLegRoll
    {
      OFFSET 0 17.9518 0
      CHANNELS 3 Zrotation Xrotation Yrotation
      JOINT LeftLeg
      {
        OFFSET 0 22.2303 0
        CHANNELS 3 Zrotation Xrotation Yrotation
        JOINT LeftLegRoll
        {
          OFFSET 0 22.5093 0
          CHANNELS 3 Zrotation Xrotation Yrotation
          JOINT LeftFoot
          {
            OFFSET 0 18.3575 0
            CHANNELS 3 Zrotation Xrotation Yrotation
            JOINT LeftToeBase
            {
              OFFSET 0 15.5183 0
              CHANNELS 3 Zrotation Xrotation Yrotation
              End Site
              {
                OFFSET -0.029478 7.51537 -0.866264
              }
            }
          }
        }
      }
    }
  }
}
MOTION
Frames: 13
Frame Time: 0.00208333
58.2782 94.0884 28.7951 -1.78255 -3.84361 1.26 0.12552 -1.78316 0.114343 0.254263 0.436714 0.216236 0.251795 2.08177 0.212065 -2.76033 25.4852 -0.298327 7.24692 -5.0501 -0.26146 74.3977 -1.95594 -2.67977 92.6318 6.35321 26.1104 -1.43685e-005 8.51752e-007 1.21263e-007 4.16475 0.20067 -1.11972 -1.00399e-006 2.0653e-006 -3.00878 8.02968 -4.9514 0.697648 -70.8415 -3.62592 3.1664 -100.666 3.84431 -29.7681 8.50696e-007 1.8834e-007 5.29406e-006 2.29549 0.853752 0.781567 -6.46088e-007 2.15217e-007 3.00708 -8.03018 -4.95139 -0.697633 -178.121 -2.27541 -1.26125 180 7.01549e-015 178.931 177.168 6.84216 179.852 -3.87021e-006 -4.96728e-006 0.0961402 -19.2724 68.8587 20.29 8.12907 25.2331 -3.48457 -178.346 -2.22274 2.41653 4.54188e-006 -4.6773e-006 -1.06273 -2.38234 -6.52184 0.0610819 -4.2131e-007 -4.95531e-006 -0.0800186 18.6696 68.1438 -19.6347 -8.14485 25.2322 3.4913 
58.2799 94.0909 28.7663 -1.78382 -3.83733 1.25565 0.125348 -1.77763 0.115072 0.253856 0.44778 0.217694 0.251376 2.09284 0.213537 -2.7846 25.5062 -0.274576 7.2389 -5.05607 -0.248052 74.3953 -1.94795 -2.6761 92.6595 6.42503 26.171 -1.43685e-005 8.51752e-007 1.21263e-007 4.10815 0.188407 -1.12651 -1.00399e-006 2.0653e-006 -3.00945 8.02968 -4.9514 0.697648 -70.8302 -3.63731 3.17116 -100.608 3.88645 -29.778 8.50696e-007 1.8834e-007 5.29406e-006 2.30201 0.867893 0.780896 -6.46088e-007 2.15217e-007 3.00708 -8.03018 -4.95139 -0.697633 -178.119 -2.25953 -1.2697 180 7.01549e-015 178.931 177.176 6.84185 179.851 -3.87021e-006 -4.96728e-006 0.0961402 -19.2732 68.8595 20.2907 8.12907 25.2331 -3.48457 -178.346 -2.19733 2.41559 4.54188e-006 -4.6773e-006 -1.06274 -2.38484 -6.53749 0.0605505 -4.2131e-007 -4.95531e-006 -0.0800186 18.6687 68.1427 -19.6337 -8.14485 25.2322 3.4913 
58.2877 94.0967 28.7523 -1.78521 -3.83099 1.25183 0.125142 -1.77211 0.115768 0.253379 0.458824 0.219088 0.250886 2.10388 0.214947 -2.80839 25.5259 -0.250947 7.23031 -5.06205 -0.234623 74.3935 -1.94031 -2.67265 92.6863 6.49585 26.2329 -1.43685e-005 8.51752e-007 1.21263e-007 4.05107 0.175707 -1.13333 -1.00399e-006 2.0653e-006 -3.01011 8.02968 -4.9514 0.697648 -70.8179 -3.64905 3.17603 -100.551 3.92778 -29.7883 8.50696e-007 1.8834e-007 5.29406e-006 2.30892 0.882642 0.78019 -6.46088e-007 2.15217e-007 3.00708 -8.03018 -4.95139 -0.697633 -178.116 -2.24374 -1.27832 180 7.01549e-015 178.931 177.184 6.84162 179.85 -3.87021e-006 -4.96728e-006 0.0961402 -19.2741 68.8605 20.2917 8.12907 25.2331 -3.48457 -178.347 -2.17173 2.41443 4.54188e-006 -4.6773e-006 -1.06277 -2.38745 -6.55339 0.0599769 -4.2131e-007 -4.95531e-006 -0.0800186 18.6676 68.1413 -19.6325 -8.14485 25.2322 3.4913 
58.3074 94.097 28.7003 -1.78668 -3.82459 1.24837 0.124912 -1.7666 0.11644 0.252851 0.46985 0.220438 0.250347 2.11491 0.216314 -2.83184 25.5448 -0.227403 7.22133 -5.06805 -0.22118 74.3921 -1.93293 -2.66935 92.7126 6.56596 26.2956 -1.43685e-005 8.51752e-007 1.21263e-007 3.99364 0.162701 -1.14018 -1.00399e-006 2.0653e-006 -3.01075 8.02968 -4.9514 0.697648 -70.8049 -3.66103 3.18096 -100.495 3.96855 -29.7989 8.50696e-007 1.8834e-007 5.29406e-006 2.3161 0.897815 0.779459 -6.46088e-007 2.15217e-007 3.00708 -8.03018 -4.95139 -0.697633 -178.113 -2.228 -1.28707 180 7.01549e-015 178.931 177.192 6.84145 179.849 -3.87021e-006 -4.96728e-006 0.0961402 -19.2751 68.8616 20.2927 8.12907 25.2331 -3.48457 -178.347 -2.146 2.41311 4.54188e-006 -4.6773e-006 -1.0628 -2.39016 -6.56945 0.0593737 -4.2131e-007 -4.95531e-006 -0.0800186 18.6663 68.1398 -19.6311 -8.14485 25.2322 3.4913 
58.3166 94.0976 28.6879 -1.78819 -3.81818 1.24512 0.124669 -1.76109 0.117099 0.252295 0.480867 0.221763 0.24978 2.12593 0.217657 -2.8551 25.5632 -0.203904 7.21212 -5.07406 -0.207728 74.391 -1.92568 -2.66614 92.7384 6.63561 26.3589 -1.43685e-005 8.51752e-007 1.21263e-007 3.93601 0.14952 -1.14705 -1.00399e-006 2.0653e-006 -3.01139 8.02968 -4.9514 0.697648 -70.7915 -3.67316 3.18594 -100.44 4.00898 -29.8097 8.50696e-007 1.8834e-007 5.29406e-006 2.32345 0.913232 0.778713 -6.46088e-007 2.15217e-007 3.00708 -8.03018 -4.95139 -0.697633 -178.11 -2.21229 -1.29589 180 7.01549e-015 178.931 177.2 6.84132 179.848 -3.87021e-006 -4.96728e-006 0.0961402 -19.2761 68.8627 20.2938 8.12907 25.2331 -3.48457 -178.347 -2.1202 2.4117 4.54188e-006 -4.6773e-006 -1.06284 -2.39291 -6.58561 0.0587536 -4.2131e-007 -4.95531e-006 -0.0800186 18.6649 68.1382 -19.6297 -8.14485 25.2322 3.4913 
58.3119 94.1 28.7032 -1.78971 -3.81175 1.24192 0.124422 -1.75558 0.117755 0.251731 0.491882 0.223082 0.249205 2.13694 0.218994 -2.87833 25.5814 -0.180411 7.20286 -5.08008 -0.194274 74.3899 -1.91847 -2.66294 92.764 6.70509 26.4223 -1.43685e-005 8.51752e-007 1.21263e-007 3.87833 0.136295 -1.15392 -1.00399e-006 2.0653e-006 -3.01203 8.02968 -4.9514 0.697648 -70.778 -3.68532 3.19093 -100.385 4.04932 -29.8205 8.50696e-007 1.8834e-007 5.29406e-006 2.33083 0.928709 0.777964 -6.46088e-007 2.15217e-007 3.00708 -8.03018 -4.95139 -0.697633 -178.107 -2.1966 -1.30473 180 7.01549e-015 178.931 177.209 6.84118 179.847 -3.87021e-006 -4.96728e-006 0.0961402 -19.2772 68.8639 20.2949 8.12907 25.2331 -3.48457 -178.347 -2.09438 2.41026 4.54188e-006 -4.6773e-006 -1.06287 -2.39568 -6.6018 0.0581293 -4.2131e-007 -4.95531e-006 -0.0800186 18.6635 68.1366 -19.6282 -8.14485 25.2322 3.4913 
58.3167 94.099 28.6722 -1.79122 -3.80534 1.23862 0.124182 -1.75007 0.118418 0.25118 0.502902 0.224413 0.248644 2.14796 0.220343 -2.90167 25.5999 -0.156884 7.19371 -5.08608 -0.180824 74.3886 -1.91119 -2.65971 92.7896 6.77467 26.4856 -1.43685e-005 8.51752e-007 1.21263e-007 3.82074 0.123158 -1.16079 -1.00399e-006 2.0653e-006 -3.01266 8.02968 -4.9514 0.697648 -70.7647 -3.69741 3.1959 -100.329 4.08982 -29.8312 8.50696e-007 1.8834e-007 5.29406e-006 2.33813 0.944065 0.777222 -6.46088e-007 2.15217e-007 3.00708 -8.03018 -4.95139 -0.697633 -178.104 -2.18088 -1.31353 180 7.01549e-015 178.931 177.217 6.84104 179.846 -3.87021e-006 -4.96728e-006 0.0961402 -19.2782 68.865 20.296 8.12907 25.2331 -3.48457 -178.347 -2.06859 2.40887 4.54188e-006 -4.6773e-006 -1.06291 -2.39842 -6.61794 0.0575134 -4.2131e-007 -4.95531e-006 -0.0800186 18.6622 68.135 -19.6267 -8.14485 25.2322 3.4913 
58.3183 94.1012 28.6816 -1.79266 -3.79896 1.23506 0.123958 -1.74456 0.119097 0.250665 0.513933 0.225776 0.248117 2.15899 0.221722 -2.92529 25.619 -0.133284 7.18486 -5.09208 -0.167384 74.3871 -1.90373 -2.65637 92.8154 6.84462 26.5484 -1.43685e-005 8.51752e-007 1.21263e-007 3.7634 0.11024 -1.16763 -1.00399e-006 2.0653e-006 -3.01331 8.02968 -4.9514 0.697648 -70.7519 -3.70932 3.20082 -100.273 4.13071 -29.8418 8.50696e-007 1.8834e-007 5.29406e-006 2.34524 0.959117 0.776498 -6.46088e-007 2.15217e-007 3.00708 -8.03018 -4.95139 -0.697633 -178.101 -2.16513 -1.32224 180 7.01549e-015 178.931 177.225 6.84086 179.845 -3.87021e-006 -4.96728e-006 0.0961402 -19.2792 68.8661 20.297 8.12907 25.2331 -3.48457 -178.347 -2.0429 2.4076 4.54188e-006 -4.6773e-006 -1.06294 -2.40111 -6.63395 0.0569185 -4.2131e-007 -4.95531e-006 -0.0800186 18.661 68.1335 -19.6254 -8.14485 25.2322 3.4913 
58.3205 94.1031 28.6595 -1.794 -3.79264 1.23108 0.123761 -1.73904 0.119802 0.250205 0.524983 0.22719 0.247645 2.17004 0.223151 -2.94933 25.6391 -0.10957 7.17645 -5.09806 -0.15396 74.3852 -1.89599 -2.65285 92.8415 6.91521 26.6102 -1.43685e-005 8.51752e-007 1.21263e-007 3.70644 0.0976713 -1.17445 -1.00399e-006 2.0653e-006 -3.01397 8.02968 -4.9514 0.697648 -70.7399 -3.72096 3.20566 -100.216 4.17223 -29.8521 8.50696e-007 1.8834e-007 5.29406e-006 2.35203 0.973683 0.775803 -6.46088e-007 2.15217e-007 3.00708 -8.03018 -4.95139 -0.697633 -178.098 -2.14931 -1.33082 180 7.01549e-015 178.931 177.233 6.84061 179.844 -3.87021e-006 -4.96728e-006 0.0961402 -19.28 68.867 20.2979 8.12907 25.2331 -3.48457 -178.348 -2.01736 2.4065 4.54188e-006 -4.6773e-006 -1.06296 -2.40369 -6.64978 0.0563573 -4.2131e-007 -4.95531e-006 -0.0800186 18.6599 68.1323 -19.6243 -8.14485 25.2322 3.4913 
58.3239 94.1041 28.6362 -1.79522 -3.78638 1.22653 0.123601 -1.7335 0.120544 0.249822 0.536059 0.228673 0.247249 2.18112 0.224648 -2.97396 25.6606 -0.0857024 7.16868 -5.10401 -0.140558 74.3826 -1.88786 -2.6491 92.8681 6.98673 26.6708 -1.43685e-005 8.51752e-007 1.21263e-007 3.65001 0.0855839 -1.18122 -1.00399e-006 2.0653e-006 -3.01465 8.02968 -4.9514 0.697648 -70.7289 -3.73221 3.21038 -100.157 4.21463 -29.862 8.50696e-007 1.8834e-007 5.29406e-006 2.3584 0.987581 0.775147 -6.46088e-007 2.15217e-007 3.00708 -8.03018 -4.95139 -0.697633 -178.096 -2.1334 -1.3392 180 7.01549e-015 178.931 177.241 6.84026 179.843 -3.87021e-006 -4.96728e-006 0.0961402 -19.2807 68.8678 20.2986 8.12907 25.2331 -3.48457 -178.348 -1.99203 2.40566 4.54188e-006 -4.6773e-006 -1.06297 -2.40614 -6.66533 0.0558425 -4.2131e-007 -4.95531e-006 -0.0800186 18.6591 68.1313 -19.6234 -8.14485 25.2322 3.4913 
58.3349 94.1033 28.6255 -1.79627 -3.78022 1.22124 0.123488 -1.72795 0.121332 0.249538 0.547169 0.230244 0.246949 2.19223 0.226231 -2.99932 25.6838 -0.0616394 7.16171 -5.10993 -0.127185 74.3791 -1.87922 -2.64505 92.8956 7.05945 26.7298 -1.43685e-005 8.51752e-007 1.21263e-007 3.59426 0.0741088 -1.18794 -1.00399e-006 2.0653e-006 -3.01535 8.02968 -4.9514 0.697648 -70.7194 -3.74297 3.21496 -100.097 4.25814 -29.8715 8.50696e-007 1.8834e-007 5.29406e-006 2.36421 1.00063 0.774542 -6.46088e-007 2.15217e-007 3.00708 -8.03018 -4.95139 -0.697633 -178.094 -2.11738 -1.34733 180 7.01549e-015 178.931 177.249 6.8398 179.842 -3.87021e-006 -4.96728e-006 0.0961402 -19.2812 68.8683 20.2991 8.12907 25.2331 -3.48457 -178.349 -1.96695 2.40514 4.54188e-006 -4.6773e-006 -1.06297 -2.40841 -6.68055 0.0553866 -4.2131e-007 -4.95531e-006 -0.0800186 18.6585 68.1306 -19.6228 -8.14485 25.2322 3.4913 
58.335 94.1046 28.6104 -1.79712 -3.77418 1.21507 0.123433 -1.72237 0.122177 0.249372 0.558318 0.231923 0.246767 2.20338 0.227918 -3.02558 25.7092 -0.0373401 7.1557 -5.11581 -0.113846 74.3748 -1.86999 -2.64063 92.9239 7.13365 26.7868 -1.43685e-005 8.51752e-007 1.21263e-007 3.53934 0.0633771 -1.19459 -1.00399e-006 2.0653e-006 -3.01607 8.02968 -4.9514 0.697648 -70.7115 -3.75314 3.21937 -100.034 4.30301 -29.8803 8.50696e-007 1.8834e-007 5.29406e-006 2.36935 1.01264 0.773998 -6.46088e-007 2.15217e-007 3.00708 -8.03018 -4.95139 -0.697633 -178.092 -2.10123 -1.35516 180 7.01549e-015 178.931 177.257 6.83922 179.841 -3.87021e-006 -4.96728e-006 0.0961402 -19.2814 68.8686 20.2993 8.12907 25.2331 -3.48457 -178.35 -1.9422 2.40501 4.54188e-006 -4.6773e-006 -1.06295 -2.41047 -6.69535 0.0550024 -4.2131e-007 -4.95531e-006 -0.0800186 18.6583 68.1304 -19.6226 -8.14485 25.2322 3.4913 
58.3418 94.107 28.5959 -1.79772 -3.76826 1.20786 0.123444 -1.71678 0.123088 0.249347 0.569515 0.233727 0.246724 2.21457 0.229729 -3.05288 25.7371 -0.0127629 7.15083 -5.12165 -0.100548 74.3692 -1.86004 -2.63579 92.9535 7.2096 26.8416 -1.43685e-005 8.51752e-007 1.21263e-007 3.48539 0.05352 -1.20117 -1.00399e-006 2.0653e-006 -3.01682 8.02968 -4.9514 0.697648 -70.7056 -3.76262 3.22358 -99.9687 4.34948 -29.8884 8.50696e-007 1.8834e-007 5.29406e-006 2.37371 1.02344 0.773526 -6.46088e-007 2.15217e-007 3.00708 -8.03018 -4.95139 -0.697633 -178.091 -2.08491 -1.36265 180 7.01549e-015 178.931 177.265 6.83849 179.84 -3.87021e-006 -4.96728e-006 0.0961402 -19.2814 68.8686 20.2992 8.12907 25.2331 -3.48457 -178.352 -1.91781 2.40533 4.54188e-006 -4.6773e-006 -1.06292 -2.41229 -6.70967 0.0547025 -4.2131e-007 -4.95531e-006 -0.0800186 18.6586 68.1307 -19.6228 -8.14485 25.2322 3.4913 
